<svg width="945" height="92" viewBox="0 0 945 92" fill="none" xmlns="http://www.w3.org/2000/svg">
<g filter="url(#filter0_i_11_2)">
<path d="M0 46C0 20.5949 20.5949 0 46 0H899C924.405 0 945 20.5949 945 46C945 71.4051 924.405 92 899 92H46C20.5949 92 0 71.4051 0 46Z" fill="#D9D9D9"/>
</g>
<path d="M0.5 46C0.5 20.871 20.871 0.5 46 0.5H899C924.129 0.5 944.5 20.871 944.5 46C944.5 71.129 924.129 91.5 899 91.5H46C20.8711 91.5 0.5 71.129 0.5 46Z" stroke="black"/>
<defs>
<filter id="filter0_i_11_2" x="0" y="0" width="945" height="96" filterUnits="userSpaceOnUse" color-interpolation-filters="sRGB">
<feFlood flood-opacity="0" result="BackgroundImageFix"/>
<feBlend mode="normal" in="SourceGraphic" in2="BackgroundImageFix" result="shape"/>
<feColorMatrix in="SourceAlpha" type="matrix" values="0 0 0 0 0 0 0 0 0 0 0 0 0 0 0 0 0 0 127 0" result="hardAlpha"/>
<feOffset dy="4"/>
<feGaussianBlur stdDeviation="2"/>
<feComposite in2="hardAlpha" operator="arithmetic" k2="-1" k3="1"/>
<feColorMatrix type="matrix" values="0 0 0 0 0 0 0 0 0 0 0 0 0 0 0 0 0 0 0.25 0"/>
<feBlend mode="normal" in2="shape" result="effect1_innerShadow_11_2"/>
</filter>
</defs>
</svg>
