<svg width="271" height="111" viewBox="0 0 271 111" fill="none" xmlns="http://www.w3.org/2000/svg">
<g filter="url(#filter0_i_259_194)">
<path d="M0 55.5C0 24.8482 24.8482 0 55.5 0H215.5C246.152 0 271 24.8482 271 55.5C271 86.1518 246.152 111 215.5 111H55.5C24.8482 111 0 86.1518 0 55.5Z" fill="#D9D9D9"/>
</g>
<path d="M0.5 55.5C0.5 25.1243 25.1243 0.5 55.5 0.5H215.5C245.876 0.5 270.5 25.1243 270.5 55.5C270.5 85.8757 245.876 110.5 215.5 110.5H55.5C25.1243 110.5 0.5 85.8757 0.5 55.5Z" stroke="black"/>
<defs>
<filter id="filter0_i_259_194" x="0" y="0" width="271" height="115" filterUnits="userSpaceOnUse" color-interpolation-filters="sRGB">
<feFlood flood-opacity="0" result="BackgroundImageFix"/>
<feBlend mode="normal" in="SourceGraphic" in2="BackgroundImageFix" result="shape"/>
<feColorMatrix in="SourceAlpha" type="matrix" values="0 0 0 0 0 0 0 0 0 0 0 0 0 0 0 0 0 0 127 0" result="hardAlpha"/>
<feOffset dy="4"/>
<feGaussianBlur stdDeviation="2"/>
<feComposite in2="hardAlpha" operator="arithmetic" k2="-1" k3="1"/>
<feColorMatrix type="matrix" values="0 0 0 0 0 0 0 0 0 0 0 0 0 0 0 0 0 0 0.25 0"/>
<feBlend mode="normal" in2="shape" result="effect1_innerShadow_259_194"/>
</filter>
</defs>
</svg>
