<svg width="430" height="111" viewBox="0 0 430 111" fill="none" xmlns="http://www.w3.org/2000/svg">
<g filter="url(#filter0_i_259_200)">
<path d="M0 55.5C0 24.8482 24.8482 0 55.5 0H374.5C405.152 0 430 24.8482 430 55.5C430 86.1518 405.152 111 374.5 111H55.5C24.8482 111 0 86.1518 0 55.5Z" fill="#D9D9D9"/>
</g>
<path d="M0.5 55.5C0.5 25.1243 25.1243 0.5 55.5 0.5H374.5C404.876 0.5 429.5 25.1243 429.5 55.5C429.5 85.8757 404.876 110.5 374.5 110.5H55.5C25.1243 110.5 0.5 85.8757 0.5 55.5Z" stroke="black"/>
<defs>
<filter id="filter0_i_259_200" x="0" y="0" width="430" height="115" filterUnits="userSpaceOnUse" color-interpolation-filters="sRGB">
<feFlood flood-opacity="0" result="BackgroundImageFix"/>
<feBlend mode="normal" in="SourceGraphic" in2="BackgroundImageFix" result="shape"/>
<feColorMatrix in="SourceAlpha" type="matrix" values="0 0 0 0 0 0 0 0 0 0 0 0 0 0 0 0 0 0 127 0" result="hardAlpha"/>
<feOffset dy="4"/>
<feGaussianBlur stdDeviation="2"/>
<feComposite in2="hardAlpha" operator="arithmetic" k2="-1" k3="1"/>
<feColorMatrix type="matrix" values="0 0 0 0 0 0 0 0 0 0 0 0 0 0 0 0 0 0 0.25 0"/>
<feBlend mode="normal" in2="shape" result="effect1_innerShadow_259_200"/>
</filter>
</defs>
</svg>
